<?xml version="1.0" encoding="UTF-8" standalone="no"?>
<svg
   version="1.1"
   id="Layer_1"
   x="0px"
   y="0px"
   width="100%"
   viewBox="0 0 1024 1024"
   enable-background="new 0 0 1024 1024"
   xml:space="preserve"
   sodipodi:docname="logo.svg"
   inkscape:version="1.4.3 (0d15f75042, 2025-12-25)"
   xmlns:inkscape="http://www.inkscape.org/namespaces/inkscape"
   xmlns:sodipodi="http://sodipodi.sourceforge.net/DTD/sodipodi-0.dtd"
   xmlns="http://www.w3.org/2000/svg"
   xmlns:svg="http://www.w3.org/2000/svg"><defs
   id="defs1" /><sodipodi:namedview
   id="namedview1"
   pagecolor="#ffffff"
   bordercolor="#000000"
   borderopacity="0.25"
   inkscape:showpageshadow="2"
   inkscape:pageopacity="0.0"
   inkscape:pagecheckerboard="0"
   inkscape:deskcolor="#d1d1d1"
   inkscape:zoom="0.71191406"
   inkscape:cx="512"
   inkscape:cy="510.59534"
   inkscape:window-width="1920"
   inkscape:window-height="940"
   inkscape:window-x="0"
   inkscape:window-y="0"
   inkscape:window-maximized="1"
   inkscape:current-layer="Layer_1" />
<path
   fill="#000000"
   opacity="1"
   stroke="none"
   d="m 434.58312,926.59785 c -5.03826,-3.53811 -9.18822,-2.7381 -13.77955,-0.20812 -43.35507,23.88882 -86.94507,47.3562 -130.10512,71.5903 -11.92847,6.69757 -21.91247,7.32467 -34.32233,0.45761 -65.65631,-36.33111 -131.70031,-71.96436 -197.763443,-107.55439 -9.410374,-5.06968 -13.572934,-11.56799 -13.565664,-22.5077 0.04695,-70.64561 -0.520921,-141.29123 -0.684371,-211.93744 -0.04662,-20.1787 0.651042,-40.35811 0.861416,-60.53873 0.08987,-8.62517 3.304958,-14.89346 11.21334,-19.15991 43.276484,-23.34697 86.416382,-46.94696 129.621042,-70.42716 24.92044,-13.54337 49.96447,-26.86283 74.76995,-40.61292 10.18297,-5.64452 19.06602,-3.2651 28.4802,1.91557 37.55594,20.66745 75.27728,41.03453 112.94845,61.49242 2.73185,1.48357 5.23618,3.58871 8.82946,3.50708 2.83742,-2.79808 1.52377,-6.46757 1.52748,-9.71575 0.0749,-66.25344 0.19696,-132.50775 -0.13202,-198.7597 -0.0523,-10.51885 4.002,-17.31008 12.91387,-22.10786 52.45806,-28.24113 104.78889,-56.72064 157.39978,-84.67327 7.05852,-3.75027 9.61346,-8.65291 9.20831,-15.76539 -1.54544,-27.13294 1.61121,-54.23353 0.4545,-81.34711 -0.42526,-9.97164 3.32963,-16.50908 12.39028,-21.168855 56.07213,-28.836754 112.01912,-57.917955 167.89227,-87.138699 8.33878,-4.3610058 15.91128,-4.4216438 24.18985,-0.098 55.33119,28.897941 110.60333,57.917145 166.25786,86.181345 11.22593,5.701019 14.68082,13.854669 14.26391,25.043639 -2.10313,56.44183 -1.33642,112.88293 -0.25505,169.3293 0.16283,8.49482 -0.93554,17.01571 -0.73158,25.50729 0.21124,8.80474 -3.99386,13.78869 -11.49461,17.66173 -52.08082,26.89293 -103.98231,54.13339 -156.10034,80.95364 -6.56671,3.37927 -8.80481,7.53444 -8.79591,14.79148 0.18684,152.37916 0.14629,304.7586 0.17587,457.13791 6.9e-4,3.14822 0.31351,6.29597 0.46524,9.44476 0.53687,11.13661 -3.71836,18.99581 -14.02218,24.4473 -55.72407,29.48139 -111.33515,59.18084 -166.74988,89.23888 -11.12091,6.0319 -20.30496,4.6074 -30.95473,-1.2573 -51.08023,-28.12971 -102.49557,-55.65057 -154.4063,-83.72195 m 187.65435,-76.40934 c 0,40.33952 0,80.67902 0,121.15478 3.16497,-0.20685 3.88951,-0.0492 4.38595,-0.31593 44.69205,-24.00934 89.32249,-48.13424 134.09336,-71.99555 6.25159,-3.33195 7.90843,-7.89192 7.90347,-14.54587 -0.11407,-150.72548 -0.12217,-301.45126 0.0779,-452.17669 0.0109,-7.69107 -2.6489,-12.27767 -9.38086,-15.65197 -18.02883,-9.03661 -35.92791,-18.34015 -53.72541,-27.82493 -5.28196,-2.8149 -9.60769,-2.74326 -14.95517,0.21087 -19.02979,10.51256 -38.15966,20.88551 -57.65481,30.4935 -8.18981,4.03625 -10.98442,9.03053 -10.96372,18.20436 0.30875,136.85083 0.21665,273.70259 0.21932,412.44743 M 590.65012,552.94494 c -0.008,-37.54628 -0.33847,-75.09706 0.18211,-112.63602 0.14549,-10.49782 -3.21928,-16.70059 -12.65929,-21.64587 -30.15501,-15.79723 -59.82661,-32.51497 -89.75086,-48.75553 -13.96768,-7.5806 -28.08732,-14.88137 -43.0229,-22.77674 -0.3295,3.12457 -0.62209,4.63378 -0.62782,6.14411 -0.0858,22.70593 -0.1375,45.41208 -0.19026,68.11812 -0.0959,41.32908 -0.13861,82.65839 -0.34754,123.98688 -0.0239,4.7137 1.75259,7.38051 5.90573,9.62732 12.47141,6.74693 24.45372,14.42882 37.09417,20.82214 9.19238,4.6494 13.10062,11.83549 12.57148,21.33381 -1.0727,19.25785 0.33743,38.45889 0.41064,57.68327 0.22111,58.01985 0.0944,116.04119 0.0254,174.06195 -0.0161,13.55417 -0.58257,27.11053 -0.4484,40.66146 0.11197,11.30878 -5.67959,18.04929 -15.30068,22.75948 -6.88998,3.37332 -14.06139,6.48743 -20.58939,12.55702 41.7929,22.72031 82.62659,44.91901 123.77235,67.28745 1.30057,-2.54628 2.34312,-3.63539 2.3452,-4.72636 0.25954,-137.53625 0.44259,-275.07273 0.6299,-414.50249 M 295.35399,713.5067 c -7.04009,2.50965 -6.37234,8.40947 -6.36922,14.15366 0.0397,73.82018 0.0173,147.64036 0.095,221.46043 0.004,3.3152 -1.09859,6.92043 1.29695,9.92108 2.93501,0.94063 4.96493,-0.84865 7.1045,-2.01091 54.01836,-29.3433 107.96634,-58.81706 162.1016,-87.94289 6.26118,-3.36846 8.11776,-7.5235 8.10252,-14.24808 -0.16878,-74.45087 -0.0769,-148.90212 -0.1619,-223.35329 -0.004,-3.22477 1.346,-6.97318 -2.4145,-10.04103 -56.09693,30.44271 -112.29108,60.93816 -169.75497,92.06103 M 77.024077,658.97191 c 0.155127,64.63636 0.522659,129.27386 0.211754,193.9079 -0.04151,8.62109 2.793112,12.75626 10.074935,16.63514 43.946134,23.40959 87.609684,47.34903 131.418824,71.01668 11.50587,6.2161 23.19224,12.09768 34.49167,17.97476 3.82705,-3.69411 2.95148,-7.36533 2.95546,-10.68202 0.0885,-73.47698 0.001,-146.95454 0.2603,-220.43082 0.028,-7.98505 -2.7418,-12.53959 -9.79778,-16.32856 -53.57121,-28.76783 -106.94385,-57.90539 -160.382855,-86.91934 -2.185864,-1.18683 -4.344115,-2.62873 -8.101303,-1.14718 -2.326668,10.94166 -0.630938,22.5822 -1.131005,35.97344 M 288.08063,504.22119 c -6.8645,-2.29591 -11.54377,-10.3447 -21.17208,-5.01281 -43.26864,23.9608 -86.93529,47.20216 -130.41562,70.78169 -12.85199,6.96972 -25.56443,14.19676 -38.290118,21.27776 2.018518,4.00045 4.870908,4.93414 7.299498,6.25118 52.61073,28.53186 105.34963,56.82984 157.78979,85.67117 7.34625,4.04042 12.84292,3.90776 19.96267,0.002 43.65316,-23.94705 87.57605,-47.40206 131.27814,-71.26072 11.12985,-6.07617 22.97026,-11.08127 34.59614,-20.34703 C 394.95087,562.21 342.1209,533.56633 288.08063,504.22141 M 620.40198,300.52143 c -1.00303,7.13929 1.73462,11.36477 8.49719,14.77541 33.73479,17.01346 67.16959,34.62139 100.72711,51.987 13.01278,6.73387 26.07063,13.38036 39.69343,20.36689 0.52705,-2.3147 1.02231,-3.47812 1.02383,-4.64224 0.0653,-53.25637 0.0324,-106.51293 0.19748,-159.76896 0.0168,-5.44761 -2.98736,-7.65641 -7.16864,-9.82598 -44.15946,-22.91345 -88.25281,-45.95413 -132.40232,-68.88669 -2.91156,-1.51227 -5.67671,-4.22361 -10.56704,-2.11422 0,51.88671 0,104.1255 -10e-4,158.10879 m 243.91438,53.85542 c 22.6295,-11.84815 44.83165,-24.63878 68.05763,-35.17138 12.79913,-5.80421 16.70515,-13.75355 16.04359,-26.83076 -2.39247,-47.28814 -0.69182,-94.62815 -1.11362,-141.9446 -0.024,-2.69147 1.04603,-5.66606 -1.63233,-8.51328 -1.54003,0.56154 -3.33334,1.006 -4.93182,1.82888 -45.41625,23.38056 -90.77413,46.87502 -136.26259,70.11394 -5.57988,2.85066 -6.27367,7.0141 -6.26281,12.39404 0.10149,50.1689 0.0421,100.33802 0.13451,150.50691 0.007,3.25996 -1.20894,7.06181 3.35773,10.23528 20.1464,-10.50776 40.74867,-21.25322 62.60971,-32.61903 M 910.43588,126.0135 c 6.10206,-3.4523 13.0047,-5.67546 18.3122,-11.0682 -1.3645,-1.05738 -2.02362,-1.74314 -2.82259,-2.16224 -44.90443,-23.555193 -89.86423,-47.00588 -134.67761,-70.73309 -5.29583,-2.80406 -9.33568,-1.675974 -14.06387,0.813423 -42.08973,22.159839 -84.25897,44.168809 -126.36972,66.288897 -3.1748,1.66768 -7.07077,2.65155 -8.63043,7.16061 1.5889,1.065 3.02965,2.24053 4.64443,3.08238 43.56191,22.71076 87.17745,45.31937 130.67337,68.15558 5.4398,2.85609 9.86677,2.20476 15.05455,-0.49937 38.82306,-20.23664 77.75671,-40.26062 117.87967,-61.03799 M 480.72113,328.27326 c 35.78855,19.26571 71.99798,37.8045 107.15329,58.16365 13.60293,7.87765 24.38767,8.91325 37.48759,0.12635 11.22545,-7.52952 23.77637,-13.08275 37.43431,-20.41965 -20.22003,-10.60002 -38.12304,-20.54207 -56.54143,-29.4143 -9.71873,-4.68166 -14.4444,-10.65018 -13.9571,-21.88097 0.76463,-17.6244 0.24267,-35.30727 0.1352,-52.96454 -0.0202,-3.33612 0.9137,-6.9763 -2.72147,-10.83178 -41.15498,22.1847 -82.5334,44.48982 -125.69688,67.75724 6.37772,3.68705 10.90471,6.30416 16.70649,9.46399 z"
   id="path1"
   style="stroke-width:1.89327;fill:#ff5555" />
</svg>
